<mxfile host="Electron" modified="2024-05-09T18:46:04.875Z" agent="Mozilla/5.0 (X11; Linux x86_64) AppleWebKit/537.36 (KHTML, like Gecko) draw.io/24.2.5 Chrome/120.0.6099.109 Electron/28.1.0 Safari/537.36" etag="cmQZul5EbBTD0Q4z5fot" version="24.2.5" type="device">
  <diagram name="Page-1" id="p01yCD7ou03wPN-XnLRA">
    <mxGraphModel dx="1597" dy="469" grid="1" gridSize="10" guides="1" tooltips="1" connect="1" arrows="1" fold="1" page="1" pageScale="1" pageWidth="850" pageHeight="1100" math="0" shadow="0">
      <root>
        <mxCell id="0" />
        <mxCell id="1" parent="0" />
        <mxCell id="JJM2S3SJx-PYRHCOglHT-4" style="edgeStyle=orthogonalEdgeStyle;rounded=0;orthogonalLoop=1;jettySize=auto;html=1;exitX=0;exitY=0.75;exitDx=0;exitDy=0;" parent="1" source="yLhyw3G5-8erD9NoncrK-2" target="JJM2S3SJx-PYRHCOglHT-1" edge="1">
          <mxGeometry relative="1" as="geometry" />
        </mxCell>
        <mxCell id="JJM2S3SJx-PYRHCOglHT-5" style="edgeStyle=orthogonalEdgeStyle;rounded=0;orthogonalLoop=1;jettySize=auto;html=1;exitX=1;exitY=0.75;exitDx=0;exitDy=0;entryX=0.5;entryY=0;entryDx=0;entryDy=0;" parent="1" source="yLhyw3G5-8erD9NoncrK-2" target="JJM2S3SJx-PYRHCOglHT-2" edge="1">
          <mxGeometry relative="1" as="geometry" />
        </mxCell>
        <mxCell id="JJM2S3SJx-PYRHCOglHT-6" style="edgeStyle=orthogonalEdgeStyle;rounded=0;orthogonalLoop=1;jettySize=auto;html=1;exitX=0.5;exitY=1;exitDx=0;exitDy=0;entryX=0.5;entryY=0;entryDx=0;entryDy=0;" parent="1" source="yLhyw3G5-8erD9NoncrK-2" target="JJM2S3SJx-PYRHCOglHT-3" edge="1">
          <mxGeometry relative="1" as="geometry" />
        </mxCell>
        <mxCell id="yLhyw3G5-8erD9NoncrK-2" value="DIALOGUE" style="shape=hexagon;perimeter=hexagonPerimeter2;whiteSpace=wrap;html=1;fixedSize=1;fontSize=14;fontStyle=1" parent="1" vertex="1">
          <mxGeometry x="360" y="20" width="120" height="80" as="geometry" />
        </mxCell>
        <mxCell id="vzVfcLFsdQnXNjQRaRnY-3" style="edgeStyle=orthogonalEdgeStyle;rounded=0;orthogonalLoop=1;jettySize=auto;html=1;exitX=0;exitY=0.5;exitDx=0;exitDy=0;entryX=0.5;entryY=0;entryDx=0;entryDy=0;" parent="1" source="JJM2S3SJx-PYRHCOglHT-1" target="vzVfcLFsdQnXNjQRaRnY-1" edge="1">
          <mxGeometry relative="1" as="geometry" />
        </mxCell>
        <mxCell id="vzVfcLFsdQnXNjQRaRnY-4" style="edgeStyle=orthogonalEdgeStyle;rounded=0;orthogonalLoop=1;jettySize=auto;html=1;exitX=1;exitY=0.5;exitDx=0;exitDy=0;entryX=0.5;entryY=0;entryDx=0;entryDy=0;" parent="1" source="JJM2S3SJx-PYRHCOglHT-1" target="vzVfcLFsdQnXNjQRaRnY-2" edge="1">
          <mxGeometry relative="1" as="geometry" />
        </mxCell>
        <mxCell id="JJM2S3SJx-PYRHCOglHT-1" value="Player" style="rounded=0;whiteSpace=wrap;html=1;fontSize=10;" parent="1" vertex="1">
          <mxGeometry x="150" y="320" width="100" height="60" as="geometry" />
        </mxCell>
        <mxCell id="JJM2S3SJx-PYRHCOglHT-2" value="NPC" style="rounded=0;whiteSpace=wrap;html=1;fontSize=10;" parent="1" vertex="1">
          <mxGeometry x="710" y="160" width="100" height="60" as="geometry" />
        </mxCell>
        <mxCell id="JJM2S3SJx-PYRHCOglHT-3" value="HUD" style="rounded=0;whiteSpace=wrap;html=1;fontSize=10;" parent="1" vertex="1">
          <mxGeometry x="370" y="160" width="100" height="60" as="geometry" />
        </mxCell>
        <mxCell id="ddrJdYeTU1-76M7wT5_4-2" style="edgeStyle=orthogonalEdgeStyle;rounded=0;orthogonalLoop=1;jettySize=auto;html=1;exitX=0.25;exitY=1;exitDx=0;exitDy=0;entryX=0.5;entryY=0;entryDx=0;entryDy=0;" parent="1" source="vzVfcLFsdQnXNjQRaRnY-1" target="vzVfcLFsdQnXNjQRaRnY-5" edge="1">
          <mxGeometry relative="1" as="geometry" />
        </mxCell>
        <mxCell id="ddrJdYeTU1-76M7wT5_4-3" style="edgeStyle=orthogonalEdgeStyle;rounded=0;orthogonalLoop=1;jettySize=auto;html=1;exitX=0.75;exitY=1;exitDx=0;exitDy=0;entryX=0.5;entryY=0;entryDx=0;entryDy=0;" parent="1" source="vzVfcLFsdQnXNjQRaRnY-1" target="ddrJdYeTU1-76M7wT5_4-1" edge="1">
          <mxGeometry relative="1" as="geometry" />
        </mxCell>
        <mxCell id="vzVfcLFsdQnXNjQRaRnY-1" value="Questions" style="rounded=0;whiteSpace=wrap;html=1;fontSize=8;" parent="1" vertex="1">
          <mxGeometry x="30" y="440" width="100" height="60" as="geometry" />
        </mxCell>
        <mxCell id="vzVfcLFsdQnXNjQRaRnY-2" value="Responses" style="rounded=0;whiteSpace=wrap;html=1;fontSize=8;" parent="1" vertex="1">
          <mxGeometry x="270" y="440" width="100" height="60" as="geometry" />
        </mxCell>
        <mxCell id="vzVfcLFsdQnXNjQRaRnY-5" value="Region" style="rounded=0;whiteSpace=wrap;html=1;fontSize=8;" parent="1" vertex="1">
          <mxGeometry x="-20" y="530" width="80" height="40" as="geometry" />
        </mxCell>
        <mxCell id="ddrJdYeTU1-76M7wT5_4-1" value="Events/Reputation" style="rounded=0;whiteSpace=wrap;html=1;fontSize=8;" parent="1" vertex="1">
          <mxGeometry x="100" y="530" width="80" height="40" as="geometry" />
        </mxCell>
        <mxCell id="ddrJdYeTU1-76M7wT5_4-4" value="Dialogue Data" style="rounded=0;whiteSpace=wrap;html=1;fontSize=8;" parent="1" vertex="1">
          <mxGeometry x="560" y="520" width="80" height="40" as="geometry" />
        </mxCell>
        <mxCell id="ddrJdYeTU1-76M7wT5_4-5" value="Files" style="rounded=0;whiteSpace=wrap;html=1;fontSize=8;" parent="1" vertex="1">
          <mxGeometry x="560" y="600" width="80" height="40" as="geometry" />
        </mxCell>
        <mxCell id="wmAC15teacdryhdT_Rkb-1" value="Things to take into consideration for dailogue:&lt;div&gt;&lt;div&gt;Reputation&lt;/div&gt;&lt;div&gt;Influence&lt;/div&gt;&lt;div&gt;Region&lt;/div&gt;&lt;/div&gt;" style="rounded=0;whiteSpace=wrap;html=1;fontSize=10;" vertex="1" parent="1">
          <mxGeometry x="20" y="40" width="160" height="240" as="geometry" />
        </mxCell>
      </root>
    </mxGraphModel>
  </diagram>
</mxfile>
